<?xml version="1.0" encoding="UTF-8"?>
<svg width="13px" height="13px" viewBox="0 0 13 13" version="1.1" xmlns="http://www.w3.org/2000/svg" xmlns:xlink="http://www.w3.org/1999/xlink">
    <!-- Generator: Sketch 45.2 (43514) - http://www.bohemiancoding.com/sketch -->
    <title>Heart</title>
    <desc>Created with Sketch.</desc>
    <defs>
        <polygon id="path-1" points="13 5.68758125 13 11.375 0 11.375 0 5.68758125 0 0.0001625 13 0.0001625 13 5.68758125"></polygon>
    </defs>
    <g id="Symbols" stroke="none" stroke-width="1" fill="none" fill-rule="evenodd">
        <g id="Product-Item" transform="translate(-45.000000, -16.000000)">
            <g id="Heart" transform="translate(45.000000, 15.000000)">
                <g id="Icon-Heart" transform="translate(0.000000, 1.000000)">
                    <g id="Shape-Heart" transform="translate(0.000000, 0.812500)">
                        <mask id="mask-2" fill="white">
                            <use xlink:href="#path-1"></use>
                        </mask>
                        <g id="Clip-2"></g>
                        <path d="M6.5,10.50985 C4.6515625,9.5437875 0.8125,7.0965375 0.8125,3.4532875 C0.8125,1.9972875 1.997125,0.8126625 3.453125,0.8126625 C4.909125,0.8126625 6.09375,1.9972875 6.09375,3.4532875 C6.09375,3.6775375 6.27575,3.8595375 6.5,3.8595375 C6.72425,3.8595375 6.90625,3.6775375 6.90625,3.4532875 C6.90625,1.9972875 8.090875,0.8126625 9.546875,0.8126625 C11.002875,0.8126625 12.1875,1.9972875 12.1875,3.4532875 C12.1875,7.0965375 8.3484375,9.5437875 6.5,10.50985 M9.546875,0.0001625 C8.21925,0.0001625 7.0776875,0.761475 6.5,1.863225 C5.9223125,0.761475 4.78075,0.0001625 3.453125,0.0001625 C1.5494375,0.0001625 0,1.5487875 0,3.4532875 C0,7.6685375 4.4175625,10.36685 6.3155625,11.3312875 L6.318,11.327225 C6.37325,11.3556625 6.433375,11.3751625 6.5,11.3751625 C6.566625,11.3751625 6.62675,11.3556625 6.682,11.327225 L6.6844375,11.3312875 C8.5824375,10.36685 13,7.6685375 13,3.4532875 C13,1.5487875 11.451375,0.0001625 9.546875,0.0001625" id="Fill-1" fill="#484848" mask="url(#mask-2)"></path>
                    </g>
                </g>
            </g>
        </g>
    </g>
</svg>