<?xml version="1.0" encoding="UTF-8"?>
<svg width="13px" height="13px" viewBox="0 0 13 13" version="1.1" xmlns="http://www.w3.org/2000/svg" xmlns:xlink="http://www.w3.org/1999/xlink">
    <!-- Generator: Sketch 45.2 (43514) - http://www.bohemiancoding.com/sketch -->
    <title>Icon-Heart-Fill</title>
    <desc>Created with Sketch.</desc>
    <defs></defs>
    <g id="Symbols" stroke="none" stroke-width="1" fill="none" fill-rule="evenodd">
        <g id="Heart-Fill">
            <g id="Icon-Heart-Fill">
                <rect id="16X16" x="0" y="0" width="13" height="13"></rect>
                <g id="Shape-Heart-Fill" transform="translate(0.000000, 0.812500)" fill="#F64747">
                    <path d="M9.546875,0 C8.2298125,0 7.08175,0.7418125 6.5,1.8289375 C5.91825,0.7418125 4.771,0 3.453125,0 C1.5494375,0 0,1.5494375 0,3.453125 C0,7.668375 4.4175625,10.3666875 6.3155625,11.331125 L6.3245,11.331125 C6.378125,11.357125 6.436625,11.375 6.5,11.375 C6.563375,11.375 6.621875,11.357125 6.6755,11.331125 L6.6844375,11.331125 C8.5824375,10.3666875 13,7.668375 13,3.453125 C13,1.5494375 11.451375,0 9.546875,0" id="Page-1"></path>
                </g>
            </g>
        </g>
    </g>
</svg>