<?xml version="1.0" encoding="UTF-8"?>
<svg width="17px" height="15px" viewBox="0 0 17 15" version="1.1" xmlns="http://www.w3.org/2000/svg" xmlns:xlink="http://www.w3.org/1999/xlink">
    <!-- Generator: Sketch 45.2 (43514) - http://www.bohemiancoding.com/sketch -->
    <title>Group 6</title>
    <desc>Created with Sketch.</desc>
    <defs></defs>
    <g id="Orders" stroke="none" stroke-width="1" fill="none" fill-rule="evenodd" stroke-linecap="round" stroke-linejoin="round">
        <g id="Products" transform="translate(-959.000000, -629.000000)" stroke="#484848">
            <g id="Group-6" transform="translate(960.000000, 630.000000)">
                <path d="M0,4.10721983 L6.98689433,8.60719255 C7.13732126,8.68317612 7.31547192,8.72784213 7.50748444,8.72784213 C7.69949697,8.72784213 7.87764763,8.68317612 8.02807456,8.60719255 L8.02961476,8.60719255 L14.8886719,4.10721983" id="Stroke-60"></path>
                <path d="M7.70103718,6.41753098 C7.70103718,6.55923006 7.58603502,6.67423222 7.44433594,6.67423222 C7.30263685,6.67423222 7.1876347,6.55923006 7.1876347,6.41753098 C7.1876347,6.2758319 7.30263685,6.16082974 7.44433594,6.16082974 C7.58603502,6.16082974 7.70103718,6.2758319 7.70103718,6.41753098 Z" id="Stroke-62"></path>
                <path d="M14.1185682,12.835062 L0.770103718,12.835062 C0.344493063,12.835062 0,12.4905689 0,12.0649582 L0,2.82371363 C0,2.39810298 0.344493063,2.05360991 0.770103718,2.05360991 L14.1185682,2.05360991 C14.5441788,2.05360991 14.8886719,2.39810298 14.8886719,2.82371363 L14.8886719,12.0649582 C14.8886719,12.4905689 14.5441788,12.835062 14.1185682,12.835062 Z" id="Stroke-64"></path>
                <path d="M10.2680496,2.05360991 L4.62062231,2.05360991 L4.62062231,0.770103718 C4.62062231,0.344493063 4.96511537,0 5.39072602,0 L9.49794585,0 C9.92355651,0 10.2680496,0.344493063 10.2680496,0.770103718 L10.2680496,2.05360991 Z" id="Stroke-66"></path>
            </g>
        </g>
    </g>
</svg>