<?xml version="1.0" encoding="UTF-8"?>
<svg width="13px" height="17px" viewBox="0 0 13 17" version="1.1" xmlns="http://www.w3.org/2000/svg" xmlns:xlink="http://www.w3.org/1999/xlink">
    <!-- Generator: Sketch 45.2 (43514) - http://www.bohemiancoding.com/sketch -->
    <title>Shape-Pin</title>
    <desc>Created with Sketch.</desc>
    <defs></defs>
    <g id="Orders" stroke="none" stroke-width="1" fill="none" fill-rule="evenodd">
        <g id="Cart" transform="translate(-85.000000, -416.000000)">
            <g id="Shape-Pin" transform="translate(86.000000, 417.000000)">
                <path d="M8.02911787,5.57007242 C8.02911787,6.92844913 6.92844913,8.02911787 5.57007242,8.02911787 C4.21169572,8.02911787 3.11102697,6.92844913 3.11102697,5.57007242 C3.11102697,4.21169572 4.21169572,3.11102697 5.57007242,3.11102697 C6.92844913,3.11102697 8.02911787,4.21169572 8.02911787,5.57007242 Z" id="Stroke-1" stroke="#484848" stroke-width="1.4"></path>
                <path d="M6.16866313,15.009935 C6.16866313,15.2814136 5.94833266,15.501744 5.67685404,15.501744 C5.40537543,15.501744 5.18504495,15.2814136 5.18504495,15.009935 C5.18504495,14.7384563 5.40537543,14.5181259 5.67685404,14.5181259 C5.94833266,14.5181259 6.16866313,14.7384563 6.16866313,15.009935" id="Fill-3" fill="#484848"></path>
                <path d="M5.40989999,14.7542727 C5.40989999,14.7542727 8.19058858,11.0145564 9.34437271,9.37486487 C10.4981568,7.73517337 10.8198,6.71811217 10.8198,5.40989999 C10.8198,2.42166796 8.39813202,0 5.40989999,0 C2.42166796,0 0,2.42166796 0,5.40989999 C0,6.71811217 0.321643145,7.73517337 1.47542727,9.37486487 C2.62921139,11.0145564 5.40989999,14.7542727 5.40989999,14.7542727" id="Stroke-5" stroke="#484848" stroke-width="1.4"></path>
            </g>
        </g>
    </g>
</svg>