<?xml version="1.0" encoding="UTF-8"?>
<svg width="35px" height="35px" viewBox="0 0 35 35" version="1.1" xmlns="http://www.w3.org/2000/svg" xmlns:xlink="http://www.w3.org/1999/xlink">
    <!-- Generator: Sketch 45.2 (43514) - http://www.bohemiancoding.com/sketch -->
    <title>Group 3</title>
    <desc>Created with Sketch.</desc>
    <defs></defs>
    <g id="Orders" stroke="none" stroke-width="1" fill="none" fill-rule="evenodd" stroke-linecap="round" stroke-linejoin="round">
        <g id="Cart" transform="translate(-768.000000, -887.000000)" stroke="#484848" stroke-width="1.4">
            <g id="Group-3" transform="translate(768.000000, 887.000000)">
                <path d="M25.6508721,3.08347546 C25.6508721,4.32921025 22.1145199,5.34024138 17.7521914,5.34024138 C13.3898629,5.34024138 9.85351069,4.32921025 9.85351069,3.08347546 C9.85351069,1.83774068 13.3898629,0.82670955 17.7521914,0.82670955 C22.1145199,0.82670955 25.6508721,1.83774068 25.6508721,3.08347546 Z" id="Stroke-947"></path>
                <path d="M25.6508721,3.08347546 L26.779255,9.28958173 C26.779255,10.8478786 22.7373873,12.1105391 17.7521914,12.1105391 C12.7669955,12.1105391 8.72512773,10.8478786 8.72512773,9.28958173 L9.85351069,3.08347546" id="Stroke-949"></path>
                <path d="M14.3670425,8.16119877 C14.3670425,8.16119877 17.7521914,8.76714042 17.7521914,9.85377321" id="Stroke-951"></path>
                <path d="M21.1373403,8.16119877 C21.1373403,8.16119877 17.7521914,8.76714042 17.7521914,9.85377321" id="Stroke-953"></path>
                <path d="M12.6744681,20.5734113 C12.6744681,20.884845 12.4217103,21.1376028 12.1102766,21.1376028 C11.7988429,21.1376028 11.5460851,20.884845 11.5460851,20.5734113 C11.5460851,20.2619776 11.7988429,20.0092198 12.1102766,20.0092198 C12.4217103,20.0092198 12.6744681,20.2619776 12.6744681,20.5734113 Z" id="Stroke-955"></path>
                <path d="M12.1102766,18 L10.9818936,18" id="Stroke-957"></path>
                <path d="M21.7015317,20.5734113 C21.7015317,20.884845 21.9542895,21.1376028 22.2657232,21.1376028 C22.5771569,21.1376028 22.8299147,20.884845 22.8299147,20.5734113 C22.8299147,20.2619776 22.5771569,20.0092198 22.2657232,20.0092198 C21.9542895,20.0092198 21.7015317,20.2619776 21.7015317,20.5734113 Z" id="Stroke-959"></path>
                <path d="M22.2657232,18 L23.3941062,18" id="Stroke-961"></path>
                <path d="M22.2657232,31.8572409 C31.334537,31.5898141 33.5495528,30.7288579 33.5495528,30.7288579 C31.1483539,26.2796439 29.036021,23.8581341 29.036021,18.3166454 C28.7065331,15.1898962 27.7914146,12.3666821 26.3425708,10.1550515" id="Stroke-963"></path>
                <path d="M8.74825958,9.1645569 C6.8796574,11.4912826 5.72080811,14.7026604 5.33941467,18.3168711 C5.33941467,23.8572314 3.22708177,26.2787412 0.82588284,30.7290836 C0.82588284,30.7290836 3.04089858,31.5900398 12.1097124,31.8574665" id="Stroke-965"></path>
                <path d="M20.2887963,11.9953312 C17.6777181,15.7246369 9.6278341,20.009107 6.46836182,20.009107 C5.40768184,20.4627169 5.33772209,21.435383 5.33997886,22.8300644 C5.34110724,23.9968124 6.54622024,26.6428704 8.05035472,26.7681209 C10.1886404,30.8077319 14.0872035,33.5497025 17.1879999,33.5497025 C20.2887963,33.5497025 24.1873594,30.8077319 26.3256451,26.7681209 C27.8297796,26.6428704 29.0348926,23.9968124 29.036021,22.8300644 C29.0382777,21.435383 28.968318,20.4627169 27.907638,20.009107 C25.1611539,20.009107 22.2465407,15.627596 21.3934832,11.8700807" id="Stroke-967"></path>
            </g>
        </g>
    </g>
</svg>