<?xml version="1.0" encoding="UTF-8"?>
<svg width="15px" height="15px" viewBox="0 0 15 15" version="1.1" xmlns="http://www.w3.org/2000/svg" xmlns:xlink="http://www.w3.org/1999/xlink">
    <!-- Generator: Sketch 45.2 (43514) - http://www.bohemiancoding.com/sketch -->
    <title>Group 7</title>
    <desc>Created with Sketch.</desc>
    <defs></defs>
    <g id="Orders" stroke="none" stroke-width="1" fill="none" fill-rule="evenodd" stroke-linecap="round" stroke-linejoin="round">
        <g id="Products" transform="translate(-960.000000, -562.000000)" stroke="#484848">
            <g id="Group-7" transform="translate(960.000000, 562.000000)">
                <path d="M10.4480124,4.1540671 C10.4480124,5.91207985 9.02266119,7.33743107 7.26464844,7.33743107 C5.50663568,7.33743107 4.08128447,5.91207985 4.08128447,4.1540671 C4.08128447,2.39605434 5.50663568,0.970703125 7.26464844,0.970703125 C9.02266119,0.970703125 10.4480124,2.39605434 10.4480124,4.1540671 Z" id="Stroke-293"></path>
                <path d="M7.26464844,8.92911305 C5.11508192,8.92911305 3.16049644,9.76792946 1.91023024,10.461107 C1.04674276,10.9409991 0.5,11.8960083 0.5,12.9457225 L0.5,13.4550608 C0.5,14.0328413 0.932141659,14.5 1.46615097,14.5 L13.0631459,14.5 C13.5963594,14.5 14.0292969,14.0328413 14.0292969,13.4550608 L14.0292969,12.9457225 C14.0292969,11.8960083 13.4825541,10.9409991 12.6190666,10.461107 C11.3688004,9.76792946 9.41421496,8.92911305 7.26464844,8.92911305 Z" id="Stroke-295"></path>
            </g>
        </g>
    </g>
</svg>