<?xml version="1.0" encoding="UTF-8"?>
<svg width="16px" height="12px" viewBox="0 0 16 12" version="1.1" xmlns="http://www.w3.org/2000/svg" xmlns:xlink="http://www.w3.org/1999/xlink">
    <!-- Generator: Sketch 45.2 (43514) - http://www.bohemiancoding.com/sketch -->
    <title>Navigation</title>
    <desc>Created with Sketch.</desc>
    <defs></defs>
    <g id="Symbols" stroke="none" stroke-width="1" fill="none" fill-rule="evenodd">
        <g id="Header" transform="translate(-30.000000, -14.000000)" fill-rule="nonzero" fill="#CCCCCC">
            <g id="Navigation" transform="translate(30.000000, 14.000000)">
                <path d="M14.0982673,1.15588374 C15.6511945,2.03877274 15.6972573,2.9840797 15.6973156,3.64411823 L15.6973156,3.74315316 C15.6973156,3.89422736 15.5670279,4.0177222 15.4078782,4.0177222 L11.9051843,4.0177222 C11.7460345,4.0177222 11.6157469,3.89422736 11.6157469,3.74315316 L11.6157469,3.40925646 C11.6157469,2.57531643 10.8182489,2.44208427 10.3782038,2.37124091 C9.93810037,2.30051417 8.84422644,2.23197395 8.23599393,2.23197395 L8.23182496,2.23197395 C7.62362161,2.23197395 6.52963106,2.30048502 6.08961509,2.37124091 C5.64959911,2.44199681 4.85207199,2.57525812 4.85207199,3.40925646 L4.85207199,3.74315316 C4.85207199,3.89422736 4.72178434,4.0177222 4.5626929,4.0177222 L1.059999,4.0177222 C0.90090756,4.0177222 0.770619918,3.89422736 0.770619918,3.74315316 L0.770619918,3.64411823 C0.770619918,2.9840797 0.816682678,2.03877274 2.36960991,1.15588374 C4.21649336,0.106060962 6.85720142,0 8.23182496,0 L8.23406979,0.00227398435 L8.23599393,0 C9.61064662,0 12.2513838,0.105944348 14.0982673,1.15588374 Z M8.23395318,3.73166663 C7.40674764,3.73166663 5.68467095,3.79364728 4.80968259,4.8546359 C3.93443184,5.91533299 1.74592598,11.1949999 3.69755847,11.1949999 L12.7702021,11.1949999 C14.7218929,11.1949999 12.5333287,5.91533299 11.6583695,4.8546359 C10.7832354,3.79364728 9.06077972,3.73166663 8.23395318,3.73166663 Z M8.23392402,9.32916657 C7.20345927,9.32916657 6.36809071,8.49382717 6.36809071,7.46333326 C6.36809071,6.43283935 7.20345927,5.59749994 8.23392402,5.59749994 C9.26441793,5.59749994 10.0997573,6.43283935 10.0997573,7.46333326 C10.0997573,8.49382717 9.26441793,9.32916657 8.23392402,9.32916657 Z" id="Shape"></path>
            </g>
        </g>
    </g>
</svg>