<?xml version="1.0" encoding="UTF-8"?>
<svg width="11px" height="12px" viewBox="0 0 11 12" version="1.1" xmlns="http://www.w3.org/2000/svg" xmlns:xlink="http://www.w3.org/1999/xlink">
    <!-- Generator: Sketch 45.2 (43514) - http://www.bohemiancoding.com/sketch -->
    <title>Icon-Close</title>
    <desc>Created with Sketch.</desc>
    <defs></defs>
    <g id="Orders" stroke="none" stroke-width="1" fill="none" fill-rule="evenodd">
        <g id="Cart" transform="translate(-830.000000, -628.000000)">
            <g id="Icon-Close" transform="translate(828.000000, 627.000000)">
                <rect id="16X16" x="0" y="0" width="12.7272727" height="14"></rect>
                <g id="Shape-Close" transform="translate(2.863636, 1.750000)" stroke="#22A7F0" fill="#22A7F0">
                    <path d="M9.36965909,9.709 L9.37920455,9.6985 L5.33511364,5.25 L9.42852273,0.74725 C9.50090909,0.667625 9.54545455,0.55825 9.54545455,0.4375 C9.54545455,0.196 9.36727273,0 9.14772727,0 C9.03795455,0 8.93852273,0.049 8.86613636,0.128625 L4.77272727,4.631375 L0.679318182,0.128625 C0.606931818,0.049 0.5075,0 0.397727273,0 C0.178181818,0 0,0.196 0,0.4375 C0,0.55825 0.0445454545,0.667625 0.116931818,0.746375 L4.21034091,5.25 L0.116931818,9.75275 C0.0445454545,9.832375 0,9.94175 0,10.0625 C0,10.304 0.178181818,10.5 0.397727273,10.5 C0.5075,10.5 0.606931818,10.451 0.679318182,10.371375 L4.77272727,5.868625 L8.81681818,10.317125 L8.82636364,10.306625 C8.89795455,10.420375 9.0125,10.5 9.14772727,10.5 C9.36727273,10.5 9.54545455,10.304 9.54545455,10.0625 C9.54545455,9.912875 9.47306818,9.78775 9.36965909,9.709" id="Fill-1"></path>
                </g>
            </g>
        </g>
    </g>
</svg>