<?xml version="1.0" encoding="UTF-8"?>
<svg width="40px" height="30px" viewBox="0 0 40 30" version="1.1" xmlns="http://www.w3.org/2000/svg" xmlns:xlink="http://www.w3.org/1999/xlink">
    <!-- Generator: Sketch 45.2 (43514) - http://www.bohemiancoding.com/sketch -->
    <title>Group</title>
    <desc>Created with Sketch.</desc>
    <defs></defs>
    <g id="Symbols" stroke="none" stroke-width="1" fill="none" fill-rule="evenodd">
        <g id="Header" transform="translate(-1221.000000, -65.000000)">
            <g id="Group" transform="translate(1241.000000, 79.500000) scale(-1, 1) translate(-1241.000000, -79.500000) translate(1221.000000, 65.000000)">
                <rect id="Rectangle-5" stroke="#484848" stroke-width="1.4" x="0.7" y="0.7" width="23.5484348" height="23.225452" rx="2"></rect>
                <circle id="Oval-3" stroke="#484848" stroke-width="1.4" fill="#FFFFFF" cx="11.0710955" cy="24.625783" r="4.29375172"></circle>
                <path d="M24.3984375,8.1328125 L30.6956336,8.1328125 L30.6956336,8.1328125 C31.424859,8.1328125 32.1291187,8.39842223 32.676727,8.87997678 L37.6948244,13.2927796 L37.6948244,13.2927796 C38.5582668,14.0520716 39.0532096,15.1462074 39.0533665,16.2960148 L39.0533818,16.4081673 L39.0543069,23.1879692 L39.0544434,23.1879692 C39.0545187,23.7402539 38.6068646,24.1880303 38.0545798,24.1881056 C38.0545343,24.1881056 38.0544888,24.1881057 38.0544434,24.1881057 L25.3984375,24.1879692 L25.3984375,24.1879692 C24.8461528,24.1879692 24.3984375,23.740254 24.3984375,23.1879692 L24.3984375,8.1328125 Z" id="Path-4" stroke="#484848" stroke-width="1.4"></path>
                <circle id="Oval-3" stroke="#484848" stroke-width="1.4" fill="#FFFFFF" cx="31.406211" cy="24.6288673" r="4.29683604"></circle>
                <path d="" id="Path-3" stroke="#CCCCCC"></path>
                <path d="M34.1404591,10.84375 L32.1714654,10.84375 L32.1714654,10.84375 C31.6191807,10.84375 31.1714654,11.2914653 31.1714654,11.84375 C31.1714654,11.8477726 31.1714897,11.8517952 31.1715382,11.8558175 L31.2188813,15.7787129 L31.2188813,15.7787129 C31.2254892,16.3262509 31.6712306,16.7666454 32.2188085,16.7666454 L37.8996213,16.7666454 L37.8996213,16.7666454 C38.4519061,16.7666454 38.8996213,16.3189302 38.8996213,15.7666454 C38.8996213,15.5314775 38.8167409,15.3038327 38.6655436,15.1237123 L35.6723037,11.5578838 L35.6723037,11.5578838 C35.2922962,11.1051832 34.731512,10.84375 34.1404591,10.84375 Z" id="Path-5" stroke="#484848" stroke-width="1.4" fill="#FFFFFF"></path>
            </g>
        </g>
    </g>
</svg>